<?xml version="1.0" standalone="no"?>
<!DOCTYPE svg PUBLIC "-//W3C//DTD SVG 20010904//EN"
 "http://www.w3.org/TR/2001/REC-SVG-20010904/DTD/svg10.dtd">
<svg version="1.0" xmlns="http://www.w3.org/2000/svg"
 width="512.000000pt" height="512.000000pt" viewBox="0 0 512.000000 512.000000"
 preserveAspectRatio="xMidYMid meet">
<metadata>
Created by potrace 1.14, written by Peter Selinger 2001-2017
</metadata>
<g transform="translate(0.000000,512.000000) scale(0.100000,-0.100000)"
fill="#000000" stroke="none">
<path d="M885 5108 c-86 -31 -166 -122 -174 -199 -2 -19 -4 -208 -5 -421 0
-365 1 -388 18 -407 11 -12 27 -21 38 -21 16 0 18 -9 18 -99 0 -99 0 -100 -27
-113 -15 -7 -32 -22 -38 -34 -7 -14 -10 -511 -9 -1545 1 -1689 -4 -1555 65
-1634 59 -67 125 -91 252 -90 l87 1 0 -238 0 -238 28 -31 c20 -22 39 -32 68
-36 43 -5 54 2 149 88 22 21 63 58 90 83 28 25 53 46 57 46 5 0 32 -22 60 -49
29 -26 76 -69 103 -94 90 -84 154 -96 202 -40 27 31 25 6 27 283 l1 225 417 0
417 1 25 23 c15 14 26 30 26 38 0 10 23 13 98 13 l97 0 13 -29 c7 -17 25 -33
40 -38 44 -14 978 -9 1032 6 173 48 305 184 343 352 10 42 12 494 12 1939 l-1
1885 -23 66 c-47 132 -149 239 -278 291 l-58 23 -1570 2 c-1095 1 -1579 -2
-1600 -9z"/>
</g>
</svg>
